<?xml version="1.0" standalone="no"?><!-- Generator: Gravit.io --><svg xmlns="http://www.w3.org/2000/svg" xmlns:xlink="http://www.w3.org/1999/xlink" style="isolation:isolate" viewBox="0 0 450 450" width="450" height="450"><defs><clipPath id="_clipPath_g0x0LlUWamVb8yawPXz3PpqE7y0spMoR"><rect width="450" height="450"/></clipPath></defs><g clip-path="url(#_clipPath_g0x0LlUWamVb8yawPXz3PpqE7y0spMoR)"><g id="Group"><path d=" M 296.985 300.446 L 423.309 174.083 C 426.951 170.455 428.999 165.526 428.999 160.386 C 428.999 155.245 426.951 150.316 423.309 146.689 L 303.357 26.688 C 295.77 19.104 283.472 19.104 275.885 26.688 L 149.561 153.022 L 296.985 300.446 Z " fill="rgb(96,125,139)"/><path d=" M 395.001 202.429 L 423.309 174.083 C 426.951 170.455 428.999 165.526 428.999 160.386 C 428.999 155.245 426.951 150.316 423.309 146.689 L 303.357 26.688 C 295.77 19.104 283.472 19.104 275.885 26.688 L 247.578 55.005 L 395.001 202.429 Z " fill="rgb(84,110,122)"/><path d=" M 153.019 149.564 L 26.695 275.888 C 23.05 279.524 21.001 284.461 21.001 289.609 C 21.001 294.758 23.05 299.695 26.695 303.331 L 146.647 423.312 C 154.234 430.896 166.532 430.896 174.119 423.312 L 300.443 296.987 L 153.019 149.564 Z " fill="rgb(207,216,220)"/></g></g></svg>